# xmcd CD database file
#
# Track frame offsets:
#	150
#	12098
#	30468
#	44558
#	57966
#	71418
#	84679
#	96544
#	110015
#	125057
#	139314
#	153238
#	167147
#	180846
#	193685
#	206524
#	219769
#	234068
#	246700
#	259313
#
# Disc length: 3641 seconds
#
# Revision: 4
# Processed by: cddbd v1.5.2PL0 Copyright (c) Steve Scherf et al.
# Submitted via: CDex 1.51
#
DISCID=1e0e3714
DTITLE=Ella Fitzgerald - Everyone's Wrong But Me  [CD 03-10]
DYEAR=1900
DGENRE=Jazz
TTITLE0=If Dreams Come True
TTITLE1=Hallelujah!
TTITLE2=Bei Mit Bist Du Schoen
TTITLE3=It's My Turn Now
TTITLE4=It's Wonderful
TTITLE5=I Was Doing All Right
TTITLE6=A Tisket, A Tasket
TTITLE7=Heart Of Mine
TTITLE8=I'm Just A Jitterbug
TTITLE9=This Time It's Real
TTITLE10=(Oh, Oh)  What Do You Know About Love ¿
TTITLE11=You Can't Be Mine  (And Someone Else's Too)
TTITLE12=We Can't Go On This Way
TTITLE13=Saving Myself For You
TTITLE14=If You Only Knew
TTITLE15=Pack Up Your Sins And Go To The Devil
TTITLE16=MacPherson Is Rehearsin'  (To Swing)
TTITLE17=Everybody Step
TTITLE18=Ella
TTITLE19=Wacky Dust
EXTD=
EXTT0=
EXTT1=
EXTT2=
EXTT3=
EXTT4=
EXTT5=
EXTT6=
EXTT7=
EXTT8=
EXTT9=
EXTT10=
EXTT11=
EXTT12=
EXTT13=
EXTT14=
EXTT15=
EXTT16=
EXTT17=
EXTT18=
EXTT19=
PLAYORDER=
